<?xml version="1.0" encoding="UTF-8"?>
<mxfile host="Electron" modified="2023-01-01T00:00:00Z" compressed="false">
  <diagram name="Page-1" id="page1">
    <mxGraphModel gridSize="10">
      <root>
        <mxCell id="0"></mxCell>
        <mxCell id="1" parent="0"></mxCell>
        <mxCell id="2" value="Server_1&#xA;Addr 1" style="rounded=1;whiteSpace=wrap;html=1;fillColor=#ffffff;strokeColor=#000000;" parent="1" vertex="1">
          <mxGeometry x="753" y="1143" width="120" height="60" as="geometry"></mxGeometry>
        </mxCell>
        <mxCell id="3" value="Server_1-App_1&#xA;Port 1" style="rounded=1;whiteSpace=wrap;html=1;fillColor=#ffffff;strokeColor=#000000;" parent="1" vertex="1">
          <mxGeometry x="693" y="1499" width="120" height="60" as="geometry"></mxGeometry>
        </mxCell>
        <mxCell id="4" value="Server_1-App_2&#xA;Port 2" style="rounded=1;whiteSpace=wrap;html=1;fillColor=#ffffff;strokeColor=#000000;" parent="1" vertex="1">
          <mxGeometry x="873" y="1263" width="120" height="60" as="geometry"></mxGeometry>
        </mxCell>
        <mxCell id="5" value="Server_1-App_3&#xA;Port 3" style="rounded=1;whiteSpace=wrap;html=1;fillColor=#ffffff;strokeColor=#000000;" parent="1" vertex="1">
          <mxGeometry x="1131" y="1117" width="120" height="60" as="geometry"></mxGeometry>
        </mxCell>
        <mxCell id="6" value="Server_1-App_4&#xA;Port 4" style="rounded=1;whiteSpace=wrap;html=1;fillColor=#ffffff;strokeColor=#000000;" parent="1" vertex="1">
          <mxGeometry x="1417" y="1082" width="120" height="60" as="geometry"></mxGeometry>
        </mxCell>
        <mxCell id="7" value="Server_2&#xA;Addr 2" style="rounded=1;whiteSpace=wrap;html=1;fillColor=#ffffff;strokeColor=#000000;" parent="1" vertex="1">
          <mxGeometry y="771" width="120" height="60" as="geometry"></mxGeometry>
        </mxCell>
        <mxCell id="8" value="Server_2-App_1&#xA;Port 1" style="rounded=1;whiteSpace=wrap;html=1;fillColor=#ffffff;strokeColor=#000000;" parent="1" vertex="1">
          <mxGeometry x="24" y="530" width="120" height="60" as="geometry"></mxGeometry>
        </mxCell>
        <mxCell id="9" value="Server_2-App_2&#xA;Port 2" style="rounded=1;whiteSpace=wrap;html=1;fillColor=#ffffff;strokeColor=#000000;" parent="1" vertex="1">
          <mxGeometry x="138" y="798" width="120" height="60" as="geometry"></mxGeometry>
        </mxCell>
        <mxCell id="10" value="Server_2-App_3&#xA;Port 3" style="rounded=1;whiteSpace=wrap;html=1;fillColor=#ffffff;strokeColor=#000000;" parent="1" vertex="1">
          <mxGeometry x="132" y="1086" width="120" height="60" as="geometry"></mxGeometry>
        </mxCell>
        <mxCell id="11" value="Server_2-App_4&#xA;Port 4" style="rounded=1;whiteSpace=wrap;html=1;fillColor=#ffffff;strokeColor=#000000;" parent="1" vertex="1">
          <mxGeometry x="20" y="1357" width="120" height="60" as="geometry"></mxGeometry>
        </mxCell>
        <mxCell id="12" value="Server_3&#xA;Addr 2" style="rounded=1;whiteSpace=wrap;html=1;fillColor=#ffffff;strokeColor=#000000;" parent="1" vertex="1">
          <mxGeometry x="713" y="297" width="120" height="60" as="geometry"></mxGeometry>
        </mxCell>
        <mxCell id="13" value="Server_3-App_1&#xA;Port 1" style="rounded=1;whiteSpace=wrap;html=1;fillColor=#ffffff;strokeColor=#000000;" parent="1" vertex="1">
          <mxGeometry x="1215" y="421" width="120" height="60" as="geometry"></mxGeometry>
        </mxCell>
        <mxCell id="14" value="Server_3-App_2&#xA;Port 2" style="rounded=1;whiteSpace=wrap;html=1;fillColor=#ffffff;strokeColor=#000000;" parent="1" vertex="1">
          <mxGeometry x="923" y="386" width="120" height="60" as="geometry"></mxGeometry>
        </mxCell>
        <mxCell id="15" value="Server_3-App_3&#xA;Port 3" style="rounded=1;whiteSpace=wrap;html=1;fillColor=#ffffff;strokeColor=#000000;" parent="1" vertex="1">
          <mxGeometry x="668" y="235" width="120" height="60" as="geometry"></mxGeometry>
        </mxCell>
        <mxCell id="16" value="Server_3-App_4&#xA;Port 4" style="rounded=1;whiteSpace=wrap;html=1;fillColor=#ffffff;strokeColor=#000000;" parent="1" vertex="1">
          <mxGeometry x="496" width="120" height="60" as="geometry"></mxGeometry>
        </mxCell>
        <mxCell id="17" style="rounded=0;html=1;jettySize=auto;orthogonalLoop=1;" parent="1" source="2" target="3" edge="1">
          <mxGeometry width="50" height="50" relative="1" as="geometry"></mxGeometry>
        </mxCell>
        <mxCell id="18" style="rounded=0;html=1;jettySize=auto;orthogonalLoop=1;" parent="1" source="2" target="4" edge="1">
          <mxGeometry width="50" height="50" relative="1" as="geometry"></mxGeometry>
        </mxCell>
        <mxCell id="19" style="rounded=0;html=1;jettySize=auto;orthogonalLoop=1;" parent="1" source="2" target="5" edge="1">
          <mxGeometry width="50" height="50" relative="1" as="geometry"></mxGeometry>
        </mxCell>
        <mxCell id="20" style="rounded=0;html=1;jettySize=auto;orthogonalLoop=1;" parent="1" source="2" target="6" edge="1">
          <mxGeometry width="50" height="50" relative="1" as="geometry"></mxGeometry>
        </mxCell>
        <mxCell id="21" style="rounded=0;html=1;jettySize=auto;orthogonalLoop=1;" parent="1" source="2" target="7" edge="1">
          <mxGeometry width="50" height="50" relative="1" as="geometry"></mxGeometry>
        </mxCell>
        <mxCell id="22" style="rounded=0;html=1;jettySize=auto;orthogonalLoop=1;" parent="1" source="3" target="2" edge="1">
          <mxGeometry width="50" height="50" relative="1" as="geometry"></mxGeometry>
        </mxCell>
        <mxCell id="23" style="rounded=0;html=1;jettySize=auto;orthogonalLoop=1;" parent="1" source="4" target="2" edge="1">
          <mxGeometry width="50" height="50" relative="1" as="geometry"></mxGeometry>
        </mxCell>
        <mxCell id="24" style="rounded=0;html=1;jettySize=auto;orthogonalLoop=1;" parent="1" source="5" target="2" edge="1">
          <mxGeometry width="50" height="50" relative="1" as="geometry"></mxGeometry>
        </mxCell>
        <mxCell id="25" style="rounded=0;html=1;jettySize=auto;orthogonalLoop=1;" parent="1" source="6" target="2" edge="1">
          <mxGeometry width="50" height="50" relative="1" as="geometry"></mxGeometry>
        </mxCell>
        <mxCell id="26" style="rounded=0;html=1;jettySize=auto;orthogonalLoop=1;" parent="1" source="7" target="8" edge="1">
          <mxGeometry width="50" height="50" relative="1" as="geometry"></mxGeometry>
        </mxCell>
        <mxCell id="27" style="rounded=0;html=1;jettySize=auto;orthogonalLoop=1;" parent="1" source="7" target="9" edge="1">
          <mxGeometry width="50" height="50" relative="1" as="geometry"></mxGeometry>
        </mxCell>
        <mxCell id="28" style="rounded=0;html=1;jettySize=auto;orthogonalLoop=1;" parent="1" source="7" target="10" edge="1">
          <mxGeometry width="50" height="50" relative="1" as="geometry"></mxGeometry>
        </mxCell>
        <mxCell id="29" style="rounded=0;html=1;jettySize=auto;orthogonalLoop=1;" parent="1" source="7" target="11" edge="1">
          <mxGeometry width="50" height="50" relative="1" as="geometry"></mxGeometry>
        </mxCell>
        <mxCell id="30" style="rounded=0;html=1;jettySize=auto;orthogonalLoop=1;" parent="1" source="8" target="7" edge="1">
          <mxGeometry width="50" height="50" relative="1" as="geometry"></mxGeometry>
        </mxCell>
        <mxCell id="31" style="rounded=0;html=1;jettySize=auto;orthogonalLoop=1;" parent="1" source="9" target="7" edge="1">
          <mxGeometry width="50" height="50" relative="1" as="geometry"></mxGeometry>
        </mxCell>
        <mxCell id="32" style="rounded=0;html=1;jettySize=auto;orthogonalLoop=1;" parent="1" source="10" target="7" edge="1">
          <mxGeometry width="50" height="50" relative="1" as="geometry"></mxGeometry>
        </mxCell>
        <mxCell id="33" style="rounded=0;html=1;jettySize=auto;orthogonalLoop=1;" parent="1" source="11" target="7" edge="1">
          <mxGeometry width="50" height="50" relative="1" as="geometry"></mxGeometry>
        </mxCell>
        <mxCell id="34" style="rounded=0;html=1;jettySize=auto;orthogonalLoop=1;" parent="1" source="12" target="13" edge="1">
          <mxGeometry width="50" height="50" relative="1" as="geometry"></mxGeometry>
        </mxCell>
        <mxCell id="35" style="rounded=0;html=1;jettySize=auto;orthogonalLoop=1;" parent="1" source="12" target="14" edge="1">
          <mxGeometry width="50" height="50" relative="1" as="geometry"></mxGeometry>
        </mxCell>
        <mxCell id="36" style="rounded=0;html=1;jettySize=auto;orthogonalLoop=1;" parent="1" source="12" target="15" edge="1">
          <mxGeometry width="50" height="50" relative="1" as="geometry"></mxGeometry>
        </mxCell>
        <mxCell id="37" style="rounded=0;html=1;jettySize=auto;orthogonalLoop=1;" parent="1" source="12" target="16" edge="1">
          <mxGeometry width="50" height="50" relative="1" as="geometry"></mxGeometry>
        </mxCell>
        <mxCell id="38" style="rounded=0;html=1;jettySize=auto;orthogonalLoop=1;" parent="1" source="12" target="7" edge="1">
          <mxGeometry width="50" height="50" relative="1" as="geometry"></mxGeometry>
        </mxCell>
        <mxCell id="39" style="rounded=0;html=1;jettySize=auto;orthogonalLoop=1;" parent="1" source="13" target="12" edge="1">
          <mxGeometry width="50" height="50" relative="1" as="geometry"></mxGeometry>
        </mxCell>
        <mxCell id="40" style="rounded=0;html=1;jettySize=auto;orthogonalLoop=1;" parent="1" source="14" target="12" edge="1">
          <mxGeometry width="50" height="50" relative="1" as="geometry"></mxGeometry>
        </mxCell>
        <mxCell id="41" style="rounded=0;html=1;jettySize=auto;orthogonalLoop=1;" parent="1" source="15" target="12" edge="1">
          <mxGeometry width="50" height="50" relative="1" as="geometry"></mxGeometry>
        </mxCell>
        <mxCell id="42" style="rounded=0;html=1;jettySize=auto;orthogonalLoop=1;" parent="1" source="16" target="12" edge="1">
          <mxGeometry width="50" height="50" relative="1" as="geometry"></mxGeometry>
        </mxCell>
      </root>
    </mxGraphModel>
  </diagram>
</mxfile>